<svg width="30" height="31" viewBox="0 0 30 31" fill="none" xmlns="http://www.w3.org/2000/svg">
<path d="M8.275 13.9875C10.075 17.525 12.975 20.425 16.5125 22.225L19.2625 19.475C19.6125 19.125 20.1 19.025 20.5375 19.1625C21.9375 19.625 23.4375 19.875 25 19.875C25.3315 19.875 25.6495 20.0067 25.8839 20.2411C26.1183 20.4755 26.25 20.7935 26.25 21.125V25.5C26.25 25.8315 26.1183 26.1495 25.8839 26.3839C25.6495 26.6183 25.3315 26.75 25 26.75C19.3641 26.75 13.9591 24.5112 9.97398 20.526C5.98883 16.5409 3.75 11.1359 3.75 5.5C3.75 5.16848 3.8817 4.85054 4.11612 4.61612C4.35054 4.3817 4.66848 4.25 5 4.25H9.375C9.70652 4.25 10.0245 4.3817 10.2589 4.61612C10.4933 4.85054 10.625 5.16848 10.625 5.5C10.625 7.0625 10.875 8.5625 11.3375 9.9625C11.475 10.4 11.375 10.8875 11.025 11.2375L8.275 13.9875Z" fill="white"/>
</svg>
