<svg width="243" height="241" viewBox="0 0 243 241" fill="none" xmlns="http://www.w3.org/2000/svg">
<circle cx="120.172" cy="134.251" r="54.1199" transform="rotate(34.3828 120.172 134.251)" fill="#955C31"/>
<circle cx="128.948" cy="121.428" r="44.9391" transform="rotate(34.3828 128.948 121.428)" fill="#F3EBE5"/>
<path d="M143.638 114.18L139.255 112.927C137.281 112.371 135.482 111.317 134.032 109.867C132.582 108.416 131.528 106.618 130.971 104.644L129.719 100.261C129.656 100.107 129.549 99.9761 129.411 99.8838C129.273 99.7915 129.111 99.7422 128.945 99.7422C128.78 99.7422 128.617 99.7915 128.48 99.8838C128.342 99.9761 128.235 100.107 128.172 100.261L126.919 104.644C126.363 106.618 125.309 108.416 123.859 109.867C122.408 111.317 120.61 112.371 118.636 112.927L114.252 114.18C114.084 114.228 113.936 114.329 113.831 114.469C113.725 114.608 113.668 114.779 113.668 114.954C113.668 115.128 113.725 115.299 113.831 115.438C113.936 115.578 114.084 115.679 114.252 115.727L118.636 116.98C120.61 117.536 122.408 118.59 123.859 120.04C125.309 121.491 126.363 123.289 126.919 125.263L128.172 129.646C128.22 129.815 128.321 129.963 128.461 130.068C128.6 130.174 128.77 130.231 128.945 130.231C129.12 130.231 129.29 130.174 129.43 130.068C129.57 129.963 129.671 129.815 129.719 129.646L130.971 125.263C131.528 123.289 132.582 121.491 134.032 120.04C135.482 118.59 137.281 117.536 139.255 116.98L143.638 115.727C143.807 115.679 143.955 115.578 144.06 115.438C144.166 115.299 144.223 115.128 144.223 114.954C144.223 114.779 144.166 114.608 144.06 114.469C143.955 114.329 143.807 114.228 143.638 114.18Z" fill="#955C31"/>
<path d="M183.844 173.293L179.829 174.034L180.57 178.049L184.584 177.308L183.844 173.293ZM139.498 205.378L139.376 204.893L139.498 205.378ZM87.8021 199.546L87.5746 199.992L87.8021 199.546ZM52.785 161.071L52.3204 161.256L52.785 161.071ZM52.8005 106.336L49.1133 108.089L50.8657 111.776L54.5529 110.023L52.8005 106.336ZM181.795 175.387C171.703 190.044 156.627 200.53 139.376 204.893L139.621 205.863C157.107 201.44 172.389 190.811 182.619 175.955L181.795 175.387ZM139.376 204.893C122.124 209.256 103.875 207.198 88.0296 199.101L87.5746 199.992C103.636 208.198 122.134 210.285 139.621 205.863L139.376 204.893ZM88.0296 199.101C72.1838 191.005 59.8225 177.423 53.2496 160.887L52.3204 161.256C58.9829 178.018 71.5127 191.785 87.5746 199.992L88.0296 199.101ZM53.2496 160.887C46.6768 144.351 46.3407 125.989 52.3042 109.224L51.362 108.888C45.3172 125.882 45.6579 144.495 52.3204 161.256L53.2496 160.887Z" fill="#955C31"/>
<path d="M182.489 164.868C182.437 164.8 182.404 164.732 182.389 164.662C182.372 164.596 182.389 164.515 182.44 164.419L182.803 163.744L184.351 165.796L190.382 166.283L189.959 167.071C189.916 167.149 189.863 167.199 189.798 167.222C189.737 167.246 189.677 167.255 189.618 167.25L185.608 166.881C185.516 166.872 185.428 166.857 185.342 166.837C185.254 166.82 185.166 166.8 185.078 166.775C185.144 166.841 185.208 166.906 185.27 166.97C185.332 167.034 185.394 167.103 185.456 167.176L187.992 170.274C188.035 170.324 188.061 170.382 188.07 170.448C188.08 170.519 188.069 170.584 188.038 170.642L187.647 171.368L182.489 164.868Z" fill="#955C31"/>
<path d="M186.161 161.062C186.346 160.635 186.607 160.358 186.945 160.23C187.282 160.106 187.674 160.141 188.122 160.334L191.427 161.765L191.709 161.115C191.734 161.058 191.77 161.017 191.819 160.992C191.872 160.968 191.933 160.972 192.005 161.002L192.383 161.166L192.112 162.1L193.686 163.041C193.736 163.071 193.769 163.112 193.784 163.165C193.803 163.22 193.799 163.277 193.773 163.338L193.565 163.817L191.704 163.012L191.035 164.558L190.347 164.26L191.017 162.714L187.775 161.311C187.548 161.213 187.355 161.195 187.197 161.257C187.039 161.32 186.923 161.438 186.847 161.612C186.804 161.712 186.78 161.802 186.774 161.884C186.77 161.971 186.772 162.048 186.781 162.115C186.79 162.182 186.799 162.239 186.809 162.285C186.82 162.337 186.82 162.377 186.808 162.405C186.786 162.455 186.737 162.486 186.659 162.499L186.086 162.58C186.004 162.351 185.969 162.101 185.98 161.832C185.995 161.564 186.055 161.307 186.161 161.062Z" fill="#955C31"/>
<path d="M193.44 158.99L187.902 156.999L188.252 156.026L193.79 158.016L193.44 158.99ZM195.1 159.833C195.005 159.799 194.923 159.747 194.854 159.677C194.787 159.611 194.732 159.534 194.69 159.445C194.65 159.361 194.627 159.27 194.621 159.173C194.615 159.076 194.629 158.98 194.663 158.886C194.697 158.791 194.747 158.708 194.814 158.637C194.879 158.57 194.954 158.515 195.04 158.472C195.128 158.433 195.218 158.41 195.312 158.403C195.408 158.396 195.504 158.41 195.599 158.444C195.694 158.478 195.777 158.529 195.847 158.595C195.922 158.663 195.979 158.739 196.018 158.824C196.06 158.913 196.085 159.004 196.093 159.097C196.099 159.194 196.085 159.29 196.051 159.385C196.017 159.48 195.967 159.562 195.9 159.633C195.834 159.704 195.757 159.758 195.669 159.797C195.583 159.84 195.49 159.864 195.39 159.869C195.291 159.879 195.195 159.867 195.1 159.833Z" fill="#955C31"/>
<path d="M193.68 155.114C193.648 155.073 193.624 155.034 193.61 154.998C193.596 154.962 193.597 154.916 193.613 154.86C193.628 154.804 193.668 154.749 193.732 154.694C193.798 154.645 193.873 154.577 193.957 154.492C194.042 154.407 194.126 154.298 194.212 154.165C194.3 154.037 194.374 153.869 194.432 153.66C194.51 153.384 194.528 153.126 194.487 152.885C194.45 152.645 194.358 152.426 194.213 152.229C194.066 152.035 193.871 151.863 193.627 151.714C193.382 151.569 193.095 151.451 192.767 151.358C192.424 151.262 192.108 151.216 191.817 151.218C191.53 151.222 191.276 151.27 191.053 151.36C190.835 151.452 190.648 151.584 190.495 151.759C190.344 151.937 190.233 152.154 190.162 152.407C190.094 152.65 190.066 152.857 190.078 153.029C190.094 153.203 190.122 153.351 190.164 153.476C190.205 153.6 190.245 153.704 190.282 153.786C190.323 153.87 190.334 153.946 190.315 154.013C190.291 154.099 190.241 154.153 190.166 154.176L189.724 154.354C189.491 154.023 189.356 153.653 189.318 153.244C189.283 152.836 189.324 152.427 189.439 152.017C189.538 151.663 189.696 151.351 189.912 151.082C190.128 150.817 190.39 150.607 190.699 150.452C191.011 150.298 191.367 150.207 191.765 150.178C192.162 150.153 192.592 150.205 193.055 150.335C193.476 150.453 193.849 150.62 194.175 150.836C194.499 151.056 194.759 151.314 194.953 151.61C195.151 151.911 195.275 152.247 195.328 152.62C195.38 152.993 195.346 153.394 195.225 153.822C195.115 154.218 194.951 154.55 194.735 154.819C194.522 155.089 194.265 155.309 193.964 155.478L193.68 155.114Z" fill="#955C31"/>
<path d="M196.447 148.543L190.682 147.361L190.89 146.348L196.655 147.53L196.447 148.543ZM198.21 149.142C198.111 149.122 198.023 149.082 197.944 149.022C197.868 148.967 197.803 148.899 197.749 148.816C197.698 148.739 197.662 148.652 197.642 148.557C197.622 148.462 197.622 148.365 197.642 148.267C197.663 148.168 197.701 148.079 197.756 147.999C197.812 147.924 197.878 147.858 197.957 147.803C198.038 147.753 198.125 147.717 198.216 147.696C198.311 147.676 198.408 147.676 198.507 147.697C198.605 147.717 198.694 147.755 198.774 147.811C198.857 147.867 198.924 147.935 198.976 148.012C199.03 148.095 199.067 148.181 199.088 148.273C199.108 148.368 199.108 148.464 199.088 148.563C199.068 148.662 199.03 148.751 198.974 148.83C198.918 148.91 198.849 148.975 198.768 149.025C198.689 149.08 198.601 149.117 198.502 149.137C198.406 149.161 198.309 149.162 198.21 149.142Z" fill="#955C31"/>
<path d="M191.388 142.904C191.452 142.444 191.63 142.107 191.922 141.894C192.213 141.684 192.601 141.613 193.084 141.681L196.651 142.179L196.749 141.477C196.758 141.415 196.782 141.366 196.823 141.329C196.867 141.292 196.927 141.279 197.004 141.289L197.413 141.347L197.4 142.318L199.168 142.806C199.224 142.822 199.267 142.853 199.296 142.9C199.328 142.947 199.34 143.004 199.331 143.069L199.258 143.587L197.25 143.306L197.017 144.975L196.275 144.871L196.508 143.203L193.01 142.714C192.765 142.68 192.574 142.714 192.439 142.816C192.303 142.919 192.222 143.064 192.196 143.252C192.181 143.359 192.181 143.453 192.198 143.534C192.217 143.618 192.24 143.692 192.266 143.754C192.293 143.817 192.317 143.869 192.338 143.911C192.363 143.958 192.374 143.996 192.369 144.027C192.362 144.081 192.322 144.124 192.251 144.157L191.721 144.388C191.58 144.188 191.48 143.957 191.418 143.695C191.361 143.433 191.351 143.169 191.388 142.904Z" fill="#955C31"/>
<path d="M192.249 133.88L198.126 134.176L198.095 134.791C198.088 134.938 198.012 135.027 197.867 135.058L197.224 135.107C197.494 135.377 197.708 135.673 197.866 135.995C198.024 136.321 198.093 136.691 198.072 137.104C198.056 137.425 197.988 137.705 197.867 137.943C197.75 138.186 197.589 138.383 197.384 138.536C197.182 138.692 196.942 138.806 196.663 138.877C196.384 138.949 196.078 138.976 195.745 138.959L192.003 138.771L192.055 137.739L195.797 137.927C196.242 137.949 196.591 137.864 196.845 137.671C197.103 137.482 197.242 137.179 197.263 136.761C197.279 136.456 197.22 136.166 197.086 135.892C196.952 135.621 196.765 135.367 196.525 135.13L192.197 134.913L192.249 133.88Z" fill="#955C31"/>
<path d="M198.103 128.978C198.121 129.33 198.078 129.658 197.973 129.962C197.872 130.266 197.715 130.532 197.502 130.76C197.292 130.988 197.026 131.17 196.704 131.307C196.385 131.447 196.017 131.528 195.599 131.549C195.437 131.557 195.328 131.545 195.272 131.513C195.216 131.481 195.185 131.417 195.18 131.32L194.981 127.41C194.61 127.437 194.29 127.503 194.02 127.61C193.75 127.717 193.526 127.856 193.349 128.028C193.175 128.2 193.048 128.4 192.967 128.629C192.889 128.858 192.857 129.112 192.872 129.391C192.885 129.65 192.925 129.871 192.993 130.053C193.064 130.24 193.138 130.399 193.215 130.531C193.291 130.662 193.361 130.771 193.423 130.857C193.49 130.947 193.525 131.025 193.528 131.09C193.533 131.176 193.503 131.243 193.44 131.293L193.077 131.602C192.916 131.482 192.773 131.336 192.648 131.164C192.527 130.992 192.424 130.806 192.34 130.604C192.256 130.407 192.192 130.201 192.146 129.986C192.096 129.771 192.066 129.558 192.055 129.345C192.034 128.939 192.083 128.56 192.201 128.209C192.322 127.862 192.508 127.555 192.759 127.291C193.013 127.029 193.332 126.819 193.715 126.66C194.099 126.501 194.544 126.408 195.051 126.383C195.461 126.362 195.847 126.404 196.209 126.51C196.571 126.619 196.888 126.785 197.159 127.008C197.434 127.23 197.654 127.508 197.818 127.841C197.987 128.174 198.082 128.553 198.103 128.978ZM197.344 129.04C197.319 128.541 197.154 128.156 196.849 127.885C196.548 127.613 196.141 127.455 195.627 127.412L195.79 130.609C196.03 130.596 196.247 130.552 196.44 130.477C196.638 130.401 196.805 130.295 196.942 130.16C197.082 130.025 197.187 129.863 197.255 129.673C197.326 129.487 197.356 129.276 197.344 129.04Z" fill="#955C31"/>
<path d="M191.045 119.721L199.503 118.424L199.66 119.446L196.237 119.971C196.54 120.179 196.792 120.423 196.996 120.701C197.203 120.979 197.337 121.315 197.397 121.709C197.446 122.027 197.435 122.315 197.365 122.572C197.299 122.833 197.181 123.059 197.01 123.25C196.844 123.444 196.631 123.603 196.373 123.729C196.114 123.855 195.82 123.943 195.49 123.994L191.787 124.562L191.63 123.54L195.334 122.972C195.774 122.904 196.099 122.751 196.309 122.511C196.524 122.274 196.599 121.949 196.536 121.536C196.489 121.233 196.373 120.961 196.187 120.719C196.002 120.481 195.768 120.27 195.485 120.086L191.201 120.743L191.045 119.721Z" fill="#955C31"/>
<path d="M190.213 116.443C190.103 115.991 190.143 115.613 190.335 115.306C190.528 115.004 190.862 114.794 191.335 114.678L194.833 113.82L194.665 113.131C194.65 113.071 194.654 113.016 194.678 112.966C194.705 112.916 194.757 112.881 194.832 112.863L195.233 112.765L195.581 113.672L197.404 113.47C197.462 113.464 197.513 113.477 197.557 113.51C197.605 113.542 197.636 113.59 197.652 113.654L197.777 114.162L195.808 114.645L196.209 116.281L195.481 116.46L195.08 114.824L191.65 115.666C191.409 115.725 191.245 115.827 191.157 115.972C191.069 116.117 191.047 116.282 191.092 116.466C191.118 116.572 191.154 116.659 191.198 116.727C191.248 116.799 191.296 116.859 191.344 116.907C191.392 116.955 191.433 116.995 191.469 117.026C191.509 117.06 191.533 117.092 191.54 117.122C191.553 117.175 191.533 117.23 191.479 117.287L191.072 117.698C190.867 117.564 190.688 117.387 190.534 117.166C190.384 116.943 190.277 116.702 190.213 116.443Z" fill="#955C31"/>
<path d="M193.532 106.685L189.98 107.898C189.559 108.042 189.266 108.251 189.101 108.524C188.937 108.797 188.921 109.129 189.055 109.522C189.153 109.807 189.313 110.054 189.535 110.26C189.757 110.467 190.025 110.635 190.34 110.765L194.446 109.362L194.781 110.34L189.212 112.243L189.013 111.66C188.965 111.521 189.003 111.41 189.126 111.327L189.699 111.045C189.349 110.895 189.04 110.697 188.772 110.453C188.508 110.208 188.31 109.891 188.177 109.502C188.073 109.198 188.031 108.912 188.049 108.644C188.073 108.378 188.15 108.135 188.279 107.914C188.409 107.694 188.59 107.499 188.822 107.33C189.056 107.164 189.331 107.027 189.646 106.919L193.197 105.706L193.532 106.685Z" fill="#955C31"/>
<path d="M187.095 106.093L186.722 105.306C186.678 105.215 186.666 105.131 186.685 105.053C186.704 104.976 186.742 104.906 186.799 104.845L188.28 103.28L186.678 99.9054L184.528 100.065C184.454 100.07 184.378 100.055 184.301 100.018C184.223 99.9821 184.164 99.9203 184.122 99.8328L183.749 99.0457L192.696 98.4814L193.187 99.5152L187.095 106.093ZM187.547 99.8399L188.88 102.647L191.379 100.014C191.531 99.8471 191.732 99.6598 191.98 99.4517C191.819 99.4814 191.667 99.506 191.527 99.5257C191.391 99.5472 191.27 99.562 191.162 99.5703L187.547 99.8399Z" fill="#955C31"/>
<path d="M188.336 90.2065L181.159 94.8658L180.596 93.9985L187.773 89.3392L188.336 90.2065Z" fill="#955C31"/>
<path d="M179.202 91.9116L178.924 91.5464C178.863 91.4662 178.826 91.3921 178.813 91.324C178.8 91.256 178.828 91.1837 178.896 91.1073L179.26 90.6842C179.056 90.6453 178.864 90.6014 178.686 90.5523C178.51 90.5008 178.342 90.4338 178.182 90.3513C178.025 90.2664 177.875 90.1617 177.731 90.0373C177.59 89.9159 177.452 89.7658 177.316 89.587C177.177 89.4052 177.072 89.2154 176.999 89.0176C176.932 88.8205 176.905 88.6247 176.917 88.4302C176.93 88.2357 176.986 88.0444 177.086 87.8562C177.192 87.6688 177.351 87.4942 177.564 87.3324C177.749 87.1916 177.965 87.1076 178.212 87.0804C178.462 87.0507 178.738 87.098 179.042 87.2221C179.348 87.3493 179.682 87.5647 180.045 87.8681C180.41 88.1692 180.801 88.5801 181.216 89.1008L181.582 88.8229C181.945 88.5461 182.16 88.2588 182.225 87.9609C182.296 87.6637 182.215 87.3626 181.983 87.0575C181.83 86.8571 181.675 86.7076 181.517 86.6087C181.365 86.5107 181.218 86.4354 181.075 86.3829C180.939 86.3312 180.816 86.2883 180.707 86.2542C180.604 86.2209 180.526 86.1687 180.472 86.0979C180.429 86.0424 180.406 85.9825 180.401 85.9183C180.401 85.8547 180.413 85.7942 180.438 85.7367L180.589 85.3883C181.035 85.4572 181.434 85.5942 181.785 85.7994C182.136 86.0045 182.449 86.2889 182.726 86.6526C182.925 86.9146 183.059 87.1801 183.128 87.4492C183.196 87.7182 183.206 87.9808 183.158 88.2367C183.109 88.4927 183.002 88.7394 182.838 88.9768C182.673 89.2142 182.459 89.4325 182.197 89.6319L179.202 91.9116ZM178.08 89.3923C178.19 89.5371 178.305 89.6591 178.424 89.7582C178.547 89.8549 178.674 89.9358 178.806 90.0007C178.944 90.0663 179.087 90.1176 179.237 90.1545C179.389 90.1945 179.55 90.2232 179.719 90.2406L180.694 89.4983C180.393 89.1286 180.117 88.83 179.866 88.6025C179.618 88.3726 179.393 88.2038 179.189 88.096C178.985 87.9882 178.802 87.9356 178.638 87.9383C178.477 87.9441 178.332 87.9963 178.202 88.0948C178.079 88.1886 177.988 88.2895 177.929 88.3976C177.87 88.5057 177.837 88.6159 177.83 88.7283C177.827 88.8383 177.846 88.9501 177.889 89.0636C177.934 89.1749 177.998 89.2844 178.08 89.3923Z" fill="#955C31"/>
<path d="M172.94 84.3358L177.296 80.3788L177.694 80.8174C177.77 80.9005 177.806 80.9722 177.803 81.0323C177.8 81.0925 177.765 81.1635 177.698 81.2453L177.066 81.9141C177.505 81.7871 177.908 81.7557 178.275 81.8199C178.648 81.8844 178.968 82.0643 179.237 82.3595C179.346 82.4799 179.431 82.6019 179.49 82.7254C179.553 82.8463 179.598 82.9705 179.625 83.0979L178.963 83.5185C178.873 83.5635 178.797 83.5517 178.734 83.4829C178.698 83.4427 178.655 83.3694 178.605 83.2628C178.558 83.1536 178.467 83.0245 178.332 82.8754C178.09 82.6088 177.809 82.4556 177.49 82.4156C177.174 82.3785 176.813 82.4338 176.409 82.5817L173.635 85.1012L172.94 84.3358Z" fill="#955C31"/>
<path d="M172.311 75.5618L169.774 78.3274C169.473 78.6556 169.316 78.979 169.302 79.2975C169.288 79.6161 169.434 79.9154 169.74 80.1955C169.962 80.3997 170.22 80.5394 170.514 80.6144C170.808 80.6894 171.124 80.7087 171.462 80.6722L174.396 77.4743L175.158 78.1733L171.18 82.5099L170.726 82.0937C170.618 81.9942 170.598 81.8786 170.666 81.7468L171.034 81.2252C170.654 81.2607 170.289 81.2354 169.937 81.1491C169.588 81.0601 169.262 80.8768 168.959 80.5992C168.722 80.382 168.548 80.151 168.436 79.9064C168.33 79.6615 168.28 79.4115 168.289 79.1562C168.297 78.9009 168.362 78.6432 168.485 78.383C168.611 78.1253 168.787 77.8738 169.012 77.6284L171.549 74.8628L172.311 75.5618Z" fill="#955C31"/>
<path d="M164.972 77.2587C164.603 76.9761 164.397 76.6552 164.355 76.2962C164.316 75.9394 164.445 75.5674 164.742 75.18L166.932 72.3209L166.37 71.8898C166.321 71.8522 166.29 71.8065 166.277 71.7529C166.267 71.6963 166.285 71.6372 166.332 71.5757L166.583 71.2483L167.423 71.738L168.718 70.4394C168.759 70.398 168.808 70.3764 168.863 70.3746C168.92 70.3698 168.975 70.3874 169.027 70.4275L169.442 70.7454L168.209 72.3549L169.546 73.3794L169.091 73.9743L167.753 72.9497L165.605 75.7536C165.454 75.9503 165.39 76.1329 165.413 76.3012C165.435 76.4695 165.521 76.6114 165.672 76.7268C165.758 76.7927 165.84 76.8385 165.918 76.8641C166.001 76.8889 166.077 76.9052 166.144 76.9129C166.211 76.9205 166.269 76.9254 166.316 76.9274C166.369 76.9287 166.407 76.9388 166.432 76.9576C166.475 76.9906 166.493 77.0462 166.487 77.1244L166.427 77.7001C166.184 77.7239 165.933 77.6977 165.674 77.6215C165.418 77.5422 165.184 77.4213 164.972 77.2587Z" fill="#955C31"/>
<path d="M166.215 67.4738L161.453 74.5833L160.593 74.0078L165.356 66.8983L166.215 67.4738Z" fill="#955C31"/>
<path d="M157.891 65.5402L156.055 68.8129C155.837 69.2013 155.758 69.5521 155.817 69.8653C155.877 70.1785 156.087 70.4366 156.449 70.6394C156.712 70.7872 156.995 70.864 157.299 70.8699C157.602 70.8757 157.914 70.8221 158.235 70.7091L160.359 66.9248L161.26 67.4309L158.38 72.5628L157.843 72.2614C157.715 72.1894 157.669 72.0814 157.705 71.9375L157.944 71.3455C157.583 71.467 157.221 71.526 156.859 71.5225C156.499 71.5157 156.139 71.4118 155.781 71.2109C155.501 71.0536 155.279 70.8687 155.114 70.6562C154.954 70.4422 154.849 70.21 154.798 69.9597C154.748 69.7093 154.753 69.4434 154.813 69.1619C154.877 68.8823 154.99 68.5972 155.153 68.3068L156.99 65.0341L157.891 65.5402Z" fill="#955C31"/>
<path d="M152.409 67.4013C152.466 67.4252 152.508 67.4702 152.535 67.5361L152.756 68.1514C152.289 68.384 151.788 68.5078 151.253 68.5228C150.721 68.5393 150.139 68.4151 149.507 68.1501C148.953 67.9181 148.491 67.6131 148.12 67.2352C147.751 66.8537 147.479 66.4249 147.305 65.9488C147.132 65.4691 147.059 64.9515 147.086 64.3959C147.113 63.8404 147.248 63.2733 147.491 62.6946C147.733 62.116 148.048 61.6244 148.436 61.2201C148.828 60.8172 149.266 60.5136 149.75 60.3093C150.235 60.1051 150.752 60.0071 151.303 60.0153C151.859 60.0215 152.423 60.1444 152.994 60.3839C153.559 60.6204 154.008 60.9115 154.342 61.2572C154.679 61.6043 154.944 61.9945 155.136 62.4278L154.599 62.7632C154.559 62.7884 154.517 62.8068 154.475 62.8184C154.433 62.8263 154.383 62.8176 154.322 62.7921C154.275 62.7727 154.232 62.7356 154.192 62.681C154.157 62.6244 154.114 62.5561 154.064 62.4761C154.013 62.3962 153.952 62.3074 153.879 62.2098C153.807 62.1123 153.715 62.0108 153.604 61.9054C153.493 61.8 153.356 61.6946 153.195 61.5891C153.035 61.48 152.84 61.3776 152.612 61.2818C152.201 61.1096 151.794 61.0232 151.391 61.0223C150.994 61.0194 150.617 61.0967 150.261 61.2542C149.905 61.4117 149.579 61.6487 149.283 61.9654C148.99 62.2836 148.746 62.6748 148.552 63.1392C148.351 63.6178 148.24 64.0731 148.219 64.505C148.201 64.9385 148.255 65.335 148.381 65.6945C148.513 66.052 148.713 66.3667 148.981 66.6386C149.249 66.9106 149.571 67.1251 149.946 67.2823C150.174 67.3781 150.385 67.4517 150.578 67.503C150.772 67.5508 150.958 67.5783 151.135 67.5855C151.316 67.5942 151.491 67.5834 151.659 67.553C151.832 67.5206 152.012 67.4721 152.199 67.4076C152.282 67.3794 152.352 67.3773 152.409 67.4013Z" fill="#955C31"/>
<path d="M140.017 64.0353C140.041 63.9494 140.078 63.8732 140.128 63.8067C140.183 63.7375 140.247 63.6825 140.318 63.6419C140.394 63.5985 140.478 63.5713 140.569 63.5602C140.661 63.5491 140.755 63.5569 140.852 63.5835C140.964 63.6143 141.057 63.6619 141.132 63.7266C141.21 63.7923 141.267 63.8701 141.303 63.9602C141.343 64.0475 141.365 64.1439 141.368 64.2492C141.372 64.3507 141.359 64.4576 141.329 64.5696C141.282 64.7377 141.21 64.9066 141.111 65.0763C141.014 65.2422 140.896 65.4007 140.758 65.5516C140.619 65.7063 140.46 65.8493 140.279 65.9805C140.102 66.1127 139.91 66.2267 139.703 66.3226L139.58 66.114C139.543 66.0559 139.534 65.9969 139.55 65.9372C139.563 65.8886 139.603 65.8454 139.67 65.8074C139.718 65.7766 139.781 65.7334 139.856 65.6778C139.934 65.6269 140.015 65.5649 140.1 65.4916C140.184 65.4184 140.265 65.3342 140.344 65.2392C140.426 65.1453 140.495 65.0397 140.551 64.9226L140.478 64.9026C140.381 64.876 140.298 64.8351 140.229 64.78C140.16 64.7249 140.103 64.6592 140.06 64.5831C140.021 64.5042 139.996 64.4191 139.985 64.3277C139.979 64.2336 139.99 64.1362 140.017 64.0353Z" fill="#955C31"/>
<path d="M136.819 57.8986C137.165 57.967 137.472 58.089 137.742 58.2646C138.012 58.4364 138.231 58.6536 138.4 58.916C138.57 59.1746 138.682 59.4771 138.736 59.8233C138.795 60.1665 138.783 60.5432 138.702 60.9536C138.671 61.1131 138.632 61.2161 138.588 61.2626C138.543 61.309 138.473 61.3228 138.378 61.304L134.537 60.5446C134.473 60.9108 134.459 61.2378 134.497 61.5256C134.535 61.8134 134.616 62.0642 134.739 62.2781C134.863 62.4883 135.027 62.6607 135.229 62.7955C135.432 62.9264 135.67 63.0189 135.944 63.073C136.199 63.1234 136.423 63.1381 136.616 63.1171C136.814 63.0931 136.987 63.0601 137.133 63.018C137.28 62.9759 137.402 62.935 137.501 62.8953C137.604 62.8525 137.688 62.8375 137.753 62.8503C137.836 62.8668 137.894 62.9119 137.927 62.9855L138.139 63.4123C137.984 63.5395 137.807 63.6428 137.61 63.7222C137.413 63.7978 137.207 63.8518 136.992 63.8842C136.78 63.9173 136.564 63.9299 136.345 63.9221C136.124 63.918 135.91 63.8953 135.701 63.854C135.302 63.7751 134.946 63.6357 134.635 63.4359C134.327 63.233 134.076 62.978 133.88 62.6708C133.688 62.3606 133.562 62.0001 133.501 61.5893C133.441 61.1785 133.459 60.7243 133.558 60.2266C133.637 59.8238 133.773 59.4597 133.963 59.1342C134.158 58.8095 134.396 58.5427 134.678 58.334C134.961 58.1215 135.284 57.9761 135.647 57.8978C136.01 57.8157 136.401 57.816 136.819 57.8986ZM136.694 58.6497C136.204 58.5528 135.79 58.619 135.453 58.8484C135.116 59.074 134.864 59.4307 134.696 59.9187L137.836 60.5396C137.883 60.3041 137.893 60.083 137.867 59.8765C137.841 59.6661 137.78 59.4783 137.682 59.3129C137.585 59.1437 137.453 59.0031 137.286 58.8911C137.123 58.776 136.926 58.6955 136.694 58.6497Z" fill="#955C31"/>
<path d="M131.643 58.1667C131.608 58.2059 131.574 58.2355 131.54 58.2555C131.507 58.2755 131.462 58.2825 131.404 58.2766C131.346 58.2708 131.285 58.2412 131.22 58.1879C131.16 58.1311 131.081 58.0685 130.983 58.0001C130.884 57.9318 130.763 57.8668 130.617 57.8053C130.476 57.7403 130.297 57.6968 130.081 57.6748C129.796 57.6458 129.539 57.6721 129.308 57.7537C129.079 57.8316 128.879 57.9591 128.709 58.1365C128.543 58.3142 128.407 58.5359 128.302 58.8017C128.201 59.0678 128.134 59.3703 128.099 59.7094C128.063 60.0639 128.071 60.3839 128.124 60.6696C128.177 60.9514 128.267 61.1941 128.394 61.3978C128.522 61.5977 128.684 61.7583 128.882 61.8797C129.084 61.9976 129.317 62.0699 129.579 62.0966C129.829 62.1221 130.038 62.1142 130.206 62.0728C130.374 62.0277 130.516 61.974 130.631 61.9118C130.746 61.8495 130.842 61.7931 130.917 61.7423C130.992 61.6877 131.065 61.664 131.134 61.671C131.223 61.6801 131.285 61.7195 131.321 61.7893L131.571 62.1944C131.285 62.4806 130.944 62.6775 130.548 62.785C130.152 62.8888 129.742 62.919 129.318 62.8759C128.952 62.8386 128.618 62.7364 128.316 62.5694C128.017 62.4028 127.766 62.1805 127.56 61.9027C127.355 61.621 127.205 61.2864 127.108 60.899C127.015 60.5119 126.993 60.0795 127.041 59.6017C127.086 59.1663 127.186 58.7698 127.344 58.412C127.504 58.0547 127.714 57.7549 127.972 57.5126C128.235 57.2668 128.545 57.0862 128.903 56.9709C129.262 56.8556 129.662 56.8204 130.105 56.8656C130.514 56.9072 130.869 57.0115 131.171 57.1785C131.474 57.3417 131.734 57.557 131.952 57.8244L131.643 58.1667Z" fill="#955C31"/>
<path d="M119.866 62.3899L119.896 56.5051L120.512 56.5083C120.659 56.509 120.752 56.5812 120.79 56.7246L120.868 57.3641C121.125 57.0827 121.411 56.8556 121.725 56.6829C122.044 56.5103 122.41 56.425 122.825 56.4271C123.146 56.4288 123.429 56.4844 123.672 56.5941C123.919 56.6999 124.124 56.852 124.285 57.0504C124.451 57.2449 124.576 57.4798 124.659 57.7552C124.743 58.0306 124.784 58.3348 124.783 58.6679L124.764 62.4149L123.729 62.4096L123.749 58.6626C123.751 58.2173 123.65 57.8721 123.446 57.627C123.246 57.3781 122.937 57.2526 122.518 57.2505C122.212 57.2489 121.925 57.3211 121.657 57.4669C121.393 57.6127 121.148 57.8109 120.922 58.0615L120.9 62.3952L119.866 62.3899Z" fill="#955C31"/>
<path d="M117.456 62.5052L116.999 62.5486C116.899 62.5581 116.816 62.5504 116.752 62.5254C116.687 62.5004 116.641 62.4387 116.612 62.3403L116.444 61.8076C116.303 61.9611 116.165 62.1006 116.029 62.2264C115.893 62.3482 115.747 62.4554 115.593 62.5479C115.438 62.6365 115.27 62.7089 115.088 62.765C114.911 62.8207 114.71 62.8592 114.486 62.8805C114.259 62.902 114.042 62.8915 113.836 62.8488C113.633 62.802 113.452 62.7219 113.294 62.6085C113.135 62.4952 113.002 62.3464 112.895 62.162C112.792 61.9734 112.727 61.7461 112.702 61.4801C112.68 61.2487 112.723 61.021 112.83 60.7969C112.937 60.5689 113.123 60.3586 113.388 60.1661C113.658 59.9733 114.017 59.803 114.466 59.6554C114.915 59.5039 115.47 59.3889 116.132 59.3106L116.088 58.8537C116.045 58.3987 115.914 58.0649 115.696 57.8522C115.481 57.6354 115.182 57.545 114.8 57.5812C114.55 57.605 114.341 57.6579 114.174 57.7399C114.01 57.8177 113.868 57.9032 113.749 57.9962C113.633 58.085 113.531 58.1666 113.445 58.2409C113.362 58.311 113.276 58.3503 113.188 58.3587C113.118 58.3653 113.055 58.3538 112.998 58.3242C112.944 58.2904 112.899 58.248 112.863 58.1969L112.647 57.8849C112.941 57.5418 113.268 57.2754 113.627 57.0857C113.987 56.896 114.394 56.7796 114.849 56.7364C115.176 56.7053 115.473 56.7316 115.737 56.8154C116.002 56.8992 116.23 57.0293 116.422 57.2056C116.614 57.3819 116.767 57.6027 116.882 57.8681C116.996 58.1334 117.069 58.4299 117.1 58.7576L117.456 62.5052ZM114.724 62.1284C114.906 62.1112 115.07 62.0782 115.217 62.0292C115.363 61.9764 115.499 61.911 115.624 61.833C115.752 61.7508 115.872 61.6558 115.982 61.5481C116.096 61.44 116.206 61.3187 116.309 61.1844L116.194 59.9641C115.721 60.0245 115.322 60.1013 114.996 60.1945C114.67 60.2838 114.407 60.3865 114.208 60.5027C114.009 60.6188 113.868 60.747 113.784 60.8872C113.704 61.0271 113.671 61.178 113.687 61.3399C113.701 61.4942 113.739 61.6248 113.8 61.7319C113.86 61.8389 113.937 61.925 114.028 61.9902C114.12 62.0516 114.225 62.0941 114.344 62.1179C114.463 62.1377 114.589 62.1413 114.724 62.1284Z" fill="#955C31"/>
<path d="M107.295 57.8261C107.546 57.7777 107.785 57.7611 108.013 57.7763C108.244 57.787 108.459 57.8283 108.658 57.9003L110.227 57.5977L110.299 57.9741C110.323 58.0996 110.259 58.1949 110.106 58.2599L109.467 58.4778C109.644 58.7 109.762 58.9632 109.821 59.2674C109.875 59.5488 109.87 59.8162 109.804 60.0694C109.742 60.3181 109.629 60.543 109.467 60.7439C109.308 60.9441 109.104 61.1136 108.855 61.2524C108.61 61.3905 108.329 61.49 108.013 61.5509C107.743 61.603 107.482 61.6198 107.23 61.6014C107.123 61.7009 107.046 61.8007 106.998 61.9006C106.954 61.9998 106.94 62.0912 106.956 62.1749C106.983 62.3118 107.058 62.4057 107.182 62.4567C107.306 62.5039 107.462 62.5251 107.65 62.5203C107.839 62.5155 108.049 62.4945 108.283 62.4574C108.516 62.4202 108.755 62.388 108.998 62.3608C109.244 62.3291 109.487 62.3117 109.727 62.3088C109.967 62.3059 110.188 62.3344 110.389 62.3942C110.59 62.4541 110.761 62.557 110.904 62.7031C111.046 62.8491 111.143 63.0552 111.195 63.3214C111.242 63.5686 111.226 63.8203 111.145 64.0764C111.068 64.3319 110.931 64.5714 110.734 64.7948C110.537 65.0221 110.281 65.2213 109.967 65.3923C109.654 65.5672 109.286 65.6953 108.864 65.7768C108.442 65.8582 108.063 65.8879 107.728 65.8659C107.396 65.8431 107.112 65.7816 106.876 65.6812C106.639 65.5809 106.45 65.4478 106.307 65.282C106.17 65.1193 106.081 64.9371 106.042 64.7356C105.987 64.4504 106.03 64.1917 106.171 63.9595C106.314 63.7227 106.532 63.5149 106.825 63.3361C106.647 63.2916 106.497 63.2162 106.373 63.1098C106.253 62.9988 106.173 62.8368 106.132 62.6239C106.116 62.5402 106.114 62.4517 106.128 62.3584C106.141 62.2613 106.169 62.1631 106.213 62.0639C106.261 61.964 106.323 61.8653 106.399 61.7678C106.474 61.6703 106.567 61.5794 106.677 61.4951C106.361 61.3904 106.096 61.2227 105.882 60.9918C105.671 60.7564 105.531 60.4619 105.463 60.1083C105.409 59.8269 105.413 59.5618 105.475 59.3131C105.541 59.0598 105.655 58.8347 105.818 58.6375C105.981 58.4366 106.186 58.2667 106.436 58.1279C106.689 57.9883 106.975 57.8877 107.295 57.8261ZM110.291 63.6673C110.263 63.5228 110.201 63.4145 110.104 63.3425C110.008 63.2704 109.886 63.2248 109.741 63.2056C109.594 63.1825 109.429 63.1769 109.246 63.1885C109.063 63.2002 108.872 63.2213 108.673 63.2519C108.473 63.2786 108.269 63.3061 108.062 63.3343C107.854 63.3625 107.654 63.3794 107.462 63.3849C107.265 63.5294 107.112 63.689 107.004 63.8637C106.9 64.0377 106.867 64.2274 106.907 64.4327C106.932 64.562 106.987 64.6756 107.073 64.7734C107.164 64.8743 107.285 64.9514 107.437 65.0049C107.59 65.0621 107.774 65.0937 107.988 65.0997C108.207 65.1088 108.457 65.0862 108.738 65.0319C109.012 64.9791 109.252 64.9071 109.46 64.8158C109.667 64.7246 109.836 64.619 109.967 64.4991C110.101 64.3785 110.196 64.2477 110.252 64.1068C110.307 63.9659 110.321 63.8194 110.291 63.6673ZM107.883 60.8778C108.089 60.8382 108.264 60.7748 108.409 60.6877C108.558 60.5998 108.675 60.4943 108.762 60.3711C108.849 60.2479 108.905 60.1108 108.931 59.9598C108.956 59.805 108.953 59.6421 108.92 59.471C108.851 59.1173 108.689 58.8568 108.432 58.6895C108.178 58.5214 107.846 58.477 107.436 58.5562C107.029 58.6347 106.737 58.7995 106.561 59.0504C106.388 59.3007 106.336 59.6026 106.404 59.9563C106.437 60.1274 106.494 60.2801 106.575 60.4143C106.659 60.544 106.765 60.6499 106.891 60.7321C107.017 60.8142 107.164 60.8687 107.331 60.8957C107.498 60.9227 107.682 60.9167 107.883 60.8778Z" fill="#955C31"/>
<path d="M100.344 59.5281C100.682 59.428 101.011 59.3931 101.331 59.4236C101.65 59.4503 101.946 59.5405 102.217 59.6943C102.488 59.8443 102.728 60.0601 102.936 60.3417C103.147 60.6184 103.312 60.9573 103.431 61.3583C103.477 61.5143 103.492 61.6232 103.473 61.6851C103.455 61.747 103.4 61.7917 103.307 61.8192L99.553 62.9313C99.666 63.2856 99.8061 63.5813 99.9733 63.8186C100.141 64.0558 100.329 64.2405 100.537 64.3725C100.745 64.5009 100.97 64.5777 101.211 64.603C101.452 64.6246 101.706 64.5958 101.974 64.5166C102.222 64.4429 102.428 64.3518 102.589 64.2433C102.754 64.13 102.891 64.0207 103.001 63.9153C103.111 63.81 103.201 63.7168 103.27 63.6358C103.341 63.55 103.409 63.4978 103.472 63.4791C103.553 63.4549 103.626 63.4677 103.689 63.5177L104.075 63.7972C103.996 63.9821 103.888 64.1555 103.75 64.3175C103.611 64.4758 103.454 64.6193 103.278 64.7482C103.106 64.8759 102.921 64.9873 102.723 65.0823C102.526 65.1811 102.325 65.2607 102.121 65.3212C101.731 65.4367 101.352 65.4784 100.983 65.4463C100.616 65.4094 100.275 65.3005 99.9588 65.1195C99.6452 64.9337 99.3661 64.673 99.1213 64.3376C98.8765 64.0021 98.6821 63.5912 98.538 63.1047C98.4214 62.7111 98.3719 62.3259 98.3895 61.949C98.4109 61.5711 98.4979 61.2242 98.6508 60.9083C98.8025 60.5887 99.0208 60.3099 99.3058 60.072C99.5897 59.8304 99.9359 59.6491 100.344 59.5281ZM100.583 60.2512C100.104 60.3931 99.7681 60.644 99.5758 61.0039C99.3824 61.36 99.3249 61.7931 99.4032 62.3031L102.472 61.394C102.404 61.1637 102.31 60.9633 102.191 60.7926C102.071 60.6182 101.929 60.4804 101.766 60.3794C101.602 60.2745 101.419 60.2114 101.219 60.1899C101.021 60.1637 100.809 60.1841 100.583 60.2512Z" fill="#955C31"/>
<path d="M94.2725 58.8337L97.3199 66.8299L96.3536 67.1981L93.3062 59.202L94.2725 58.8337Z" fill="#955C31"/>
<path d="M90.5261 60.5459L90.9212 61.3744L87.3136 63.0949L88.5039 65.5908L91.4245 64.198L91.8046 64.995L88.884 66.3878L90.1068 68.9519L93.7144 67.2315L94.1095 68.06L89.4794 70.2681L85.896 62.754L90.5261 60.5459Z" fill="#955C31"/>
<path d="M83.2418 73.1134C83.1941 73.0382 83.1625 72.9596 83.1472 72.8776C83.133 72.7902 83.1349 72.7065 83.1529 72.6263C83.172 72.5408 83.2082 72.4605 83.2614 72.3854C83.3147 72.3103 83.3838 72.2458 83.4689 72.1918C83.567 72.1296 83.665 72.0925 83.7631 72.0808C83.8644 72.0669 83.9603 72.0772 84.0508 72.1114C84.1426 72.1404 84.2285 72.189 84.3086 72.2575C84.3867 72.3226 84.4568 72.4042 84.5191 72.5023C84.6125 72.6495 84.6887 72.8167 84.7479 73.0039C84.805 73.1878 84.8431 73.3815 84.8622 73.585C84.8833 73.7918 84.8817 74.0061 84.8573 74.2279C84.8363 74.4477 84.7916 74.6664 84.7233 74.8841L84.4859 74.8352C84.4185 74.823 84.3682 74.7907 84.335 74.7383C84.308 74.6958 84.3029 74.6372 84.3196 74.5623C84.3295 74.5056 84.3392 74.4306 84.3488 74.3374C84.3638 74.2453 84.3725 74.1434 84.3751 74.0317C84.3776 73.9201 84.37 73.8033 84.3523 73.6815C84.3379 73.5576 84.3063 73.4355 84.2574 73.3151L84.1937 73.3556C84.1086 73.4096 84.0225 73.4436 83.9351 73.4578C83.8478 73.4719 83.7613 73.4694 83.6758 73.4503C83.5915 73.4259 83.5118 73.387 83.4367 73.3337C83.3628 73.2751 83.2978 73.2017 83.2418 73.1134Z" fill="#955C31"/>
<path d="M80.7691 77.8271C80.7872 77.9101 80.7882 77.9864 80.7723 78.056C80.7594 78.1233 80.7094 78.1892 80.6222 78.2537L80.0058 78.7097L79.4808 76.1931L74.2326 73.1819L74.9518 72.6499C75.0234 72.5969 75.0933 72.5741 75.1614 72.5815C75.2272 72.5858 75.2856 72.6029 75.3365 72.6326L78.8064 74.6759C78.8851 74.7237 78.9592 74.7749 79.0285 74.8296C79.101 74.882 79.1715 74.9382 79.24 74.9983C79.2088 74.9106 79.1788 74.8244 79.1499 74.7398C79.1211 74.6551 79.0941 74.5667 79.0692 74.4743L78.0966 70.5907C78.0784 70.5271 78.0796 70.4636 78.1002 70.4002C78.1215 70.3314 78.1587 70.2774 78.2116 70.2382L78.8748 69.7476L80.7691 77.8271Z" fill="#955C31"/>
<path d="M74.1663 81.0465L70.2669 76.6391L70.7107 76.2464C70.7948 76.172 70.8669 76.1366 70.927 76.1403C70.9872 76.144 71.0577 76.1799 71.1386 76.2479L71.799 76.8892C71.6778 76.4482 71.6517 76.0447 71.7208 75.6785C71.7901 75.3069 71.9742 74.9889 72.2729 74.7246C72.3948 74.6168 72.5178 74.5338 72.6421 74.4755C72.7638 74.4144 72.8886 74.3713 73.0163 74.3461L73.4282 75.0133C73.4721 75.1038 73.4592 75.1799 73.3896 75.2414C73.349 75.2774 73.275 75.3195 73.1678 75.3678C73.058 75.4132 72.9277 75.5027 72.7769 75.6361C72.5072 75.8748 72.3502 76.1533 72.306 76.4716C72.2648 76.7873 72.3154 77.1485 72.4579 77.555L74.9408 80.3613L74.1663 81.0465Z" fill="#955C31"/>
<path d="M65.3834 81.5614L68.1154 84.1344C68.4397 84.4397 68.7609 84.6013 69.0793 84.6192C69.3976 84.637 69.6989 84.4951 69.983 84.1934C70.1901 83.9735 70.3331 83.7172 70.412 83.4244C70.4909 83.1316 70.5143 82.8158 70.4822 82.4771L67.3231 79.5019L68.032 78.7491L72.3161 82.7837L71.8939 83.232C71.793 83.3391 71.6771 83.3577 71.5463 83.2876L71.0295 82.9127C71.0601 83.2926 71.03 83.6579 70.9391 84.0086C70.8454 84.3566 70.6579 84.6801 70.3764 84.9789C70.156 85.2129 69.9228 85.3843 69.6767 85.4931C69.4305 85.5963 69.1798 85.6422 68.9247 85.6307C68.6695 85.6191 68.4127 85.5501 68.1541 85.4236C67.8982 85.2943 67.6489 85.1155 67.4065 84.8871L64.6745 82.3142L65.3834 81.5614Z" fill="#955C31"/>
<path d="M63.3333 88.5542L59.8508 88.3737L60.4567 87.5865C60.5087 87.5189 60.5572 87.4781 60.6023 87.4639C60.6474 87.4498 60.6994 87.4458 60.7582 87.4519L63.3863 87.6566C63.3216 87.5629 63.2664 87.4568 63.2206 87.3385L62.5198 85.2011C62.5005 85.1373 62.4904 85.0806 62.4894 85.0311C62.4854 84.9791 62.5011 84.9301 62.5366 84.8841L63.1177 84.1291L64.1376 87.4138L67.8308 87.6538L67.2249 88.4411C67.173 88.5086 67.1148 88.5493 67.0503 88.5632C66.9851 88.5717 66.9216 88.5717 66.8597 88.5632L64.1285 88.3305C64.201 88.4205 64.256 88.5141 64.2935 88.6114L65.0456 90.9203C65.065 90.9841 65.0789 91.0485 65.0874 91.1137C65.0952 91.1734 65.0754 91.234 65.0282 91.2954L64.4648 92.0274L63.3333 88.5542Z" fill="#955C31"/>
<path d="M56.385 93.7376L59.5716 95.7198C59.9498 95.9551 60.2967 96.05 60.6123 96.0046C60.9279 95.9591 61.1951 95.7605 61.414 95.4086C61.5736 95.1521 61.6631 94.8726 61.6826 94.57C61.702 94.2674 61.6626 93.9532 61.5642 93.6274L57.8794 91.3353L58.4255 90.4572L63.4225 93.5656L63.0973 94.0885C63.0195 94.2134 62.9096 94.2545 62.7675 94.2117L62.1868 93.9463C62.2919 94.3127 62.3345 94.6767 62.3148 95.0385C62.2917 95.3981 62.1718 95.7523 61.9549 96.1008C61.7851 96.3738 61.5904 96.5879 61.3707 96.7431C61.1497 96.893 60.913 96.9875 60.6607 97.0267C60.4083 97.0658 60.1428 97.0489 59.8643 96.976C59.5879 96.8998 59.3083 96.7738 59.0254 96.5979L55.8388 94.6156L56.385 93.7376Z" fill="#955C31"/>
<path d="M57.5255 102.094L59.1121 98.8607L59.9622 99.2779L57.8791 103.523L50.4055 99.856L50.902 98.8442L57.5255 102.094Z" fill="#955C31"/>
</svg>
